<?xml version="1.0" standalone="no"?>
<!DOCTYPE svg PUBLIC "-//W3C//DTD SVG 20010904//EN"
 "http://www.w3.org/TR/2001/REC-SVG-20010904/DTD/svg10.dtd">
<svg version="1.0" xmlns="http://www.w3.org/2000/svg"
 width="1024.000000pt" height="1024.000000pt" viewBox="0 0 1024.000000 1024.000000"
 preserveAspectRatio="xMidYMid meet">

<g transform="translate(0.000000,1024.000000) scale(0.100000,-0.100000)"
fill="#000000" stroke="none">
<path d="M0 5120 l0 -5120 5120 0 5120 0 0 5120 0 5120 -5120 0 -5120 0 0
-5120z m5129 4146 c71 -37 64 -156 -10 -187 -64 -26 -139 28 -139 99 1 43 15
66 56 87 36 19 57 19 93 1z m-667 -77 c27 -14 50 -73 42 -107 -8 -35 -49 -79
-80 -86 -61 -16 -133 60 -119 124 14 62 99 100 157 69z m1361 -17 c35 -37 43
-81 23 -120 -22 -42 -50 -55 -103 -49 -55 6 -80 28 -88 78 -5 30 -2 46 15 73
24 40 32 44 86 45 32 1 46 -5 67 -27z m-1041 -9 c37 -33 11 -103 -38 -103 -26
0 -60 52 -48 73 28 48 55 58 86 30z m680 0 c24 -21 23 -65 -1 -87 -25 -23 -49
-18 -74 15 -19 26 -19 28 -1 58 20 35 48 40 76 14z m-1340 -140 c24 -22 23
-58 -4 -83 -28 -26 -55 -22 -80 11 -19 25 -19 28 -4 58 19 36 57 42 88 14z
m2003 -8 c31 -30 31 -37 1 -72 -21 -24 -27 -26 -52 -18 -39 14 -53 55 -30 89
21 33 50 33 81 1z m-2307 -60 c33 -39 30 -95 -9 -140 -41 -46 -84 -48 -134 -4
-30 26 -35 38 -35 73 0 102 111 146 178 71z m2627 20 c35 -17 55 -51 55 -93 0
-63 -68 -109 -133 -91 -47 13 -67 42 -67 97 0 35 6 49 29 73 33 33 66 37 116
14z m-975 -86 c295 -35 553 -107 865 -244 72 -32 153 -66 180 -77 115 -45 461
-274 644 -427 339 -281 614 -632 811 -1036 104 -213 224 -542 256 -700 8 -44
26 -129 39 -190 55 -255 101 -630 90 -743 -29 -314 -73 -545 -119 -627 -20
-38 -24 -40 -66 -39 l-44 1 25 -19 c13 -11 40 -29 59 -41 30 -19 35 -29 38
-64 3 -35 -1 -44 -20 -57 -19 -12 -31 -13 -62 -5 -21 6 -39 9 -41 7 -1 -2 -17
-35 -34 -74 -50 -116 -109 -213 -190 -314 -80 -100 -218 -250 -231 -250 -4 0
-10 28 -13 63 -4 57 -3 65 24 97 70 84 175 219 209 270 58 85 141 239 161 300
11 30 30 64 43 75 18 15 36 62 74 190 58 196 79 315 88 505 7 158 -11 294 -76
545 -47 187 -71 242 -104 251 -67 17 -85 -11 -67 -108 22 -126 26 -367 8 -461
-9 -45 -28 -142 -43 -216 -39 -203 -103 -397 -201 -617 -59 -132 -108 -206
-222 -339 -47 -55 -90 -105 -96 -112 -12 -15 -266 -254 -316 -298 -19 -16 -49
-42 -67 -58 l-34 -27 -25 37 -25 37 98 90 c124 112 242 234 249 256 3 10 36
38 73 63 89 60 190 160 224 223 36 66 58 154 58 227 0 52 4 65 34 106 53 73
82 137 126 287 101 336 126 476 117 659 -9 179 -53 299 -153 422 -30 36 -57
78 -60 92 -14 64 -37 123 -70 177 -65 107 -148 215 -214 277 -124 117 -392
278 -550 331 -106 35 -298 68 -381 64 -38 -1 -72 2 -77 7 -5 6 -42 55 -83 110
-105 142 -241 273 -404 389 -278 198 -506 296 -782 337 -174 26 -421 22 -577
-10 -197 -41 -447 -138 -631 -246 -505 -297 -825 -750 -960 -1357 -20 -90 -40
-166 -43 -169 -4 -4 -35 -18 -69 -31 -75 -30 -234 -124 -328 -194 -73 -55
-181 -161 -231 -229 -66 -89 -174 -284 -174 -315 0 -6 -9 -33 -21 -59 -19 -44
-26 -51 -85 -76 -75 -32 -104 -63 -151 -161 -39 -82 -58 -186 -48 -259 3 -27
10 -120 14 -205 10 -176 24 -229 96 -341 67 -104 260 -349 315 -399 9 -8 22
-23 29 -32 12 -17 9 -18 -41 -18 l-55 0 -81 98 c-113 137 -142 181 -211 313
-103 201 -123 286 -142 606 -16 288 -1 677 36 923 8 52 21 140 30 194 19 124
20 115 -10 126 -14 5 -45 19 -70 30 -25 11 -57 25 -71 30 -46 18 -134 93 -181
155 -136 180 -183 389 -133 590 28 111 49 161 105 244 61 92 192 183 320 224
64 21 197 37 301 37 l81 0 9 57 c8 49 14 61 43 80 46 31 92 30 131 -3 29 -25
31 -30 28 -83 -3 -50 -6 -58 -35 -76 -18 -11 -32 -23 -33 -26 0 -8 118 -99
128 -99 4 0 37 39 72 86 154 208 340 409 505 545 250 206 657 428 995 544 368
125 550 160 903 175 221 9 278 6 517 -21z m-1986 -131 c21 -29 20 -67 -1 -90
-21 -24 -42 -23 -70 4 -27 25 -29 49 -7 83 20 31 58 32 78 3z m3269 -6 c26
-23 22 -68 -9 -89 -24 -15 -29 -15 -53 -2 -14 8 -30 27 -35 42 -8 22 -6 31 14
52 25 27 50 26 83 -3z m-3539 -113 c25 -28 28 -37 24 -81 -7 -63 -32 -91 -85
-91 -58 0 -80 10 -103 47 -24 40 -25 67 -5 106 34 67 117 76 169 19z m3833 21
c45 -27 58 -56 54 -128 -3 -68 -117 -99 -166 -46 -50 54 -41 139 19 175 39 24
53 24 93 -1z m-4114 -278 c32 -34 34 -51 6 -86 -25 -32 -45 -33 -76 -4 -27 25
-30 64 -7 96 20 30 45 28 77 -6z m4364 6 c35 -33 27 -85 -18 -109 -18 -9 -26
-6 -50 17 -34 32 -37 66 -9 94 26 26 48 25 77 -2z m266 -129 c60 -65 18 -179
-67 -179 -25 0 -45 8 -67 28 -27 24 -31 35 -32 80 -1 41 4 57 22 76 42 44 100
42 144 -5z m-4868 17 c18 -8 38 -23 44 -34 12 -23 15 -91 5 -117 -13 -34 -108
-59 -139 -37 -28 19 -55 68 -55 97 0 49 49 102 98 104 7 1 28 -5 47 -13z
m2543 -183 c155 -31 322 -89 322 -112 0 -4 -37 -6 -82 -4 -82 3 -82 3 -43 -11
l40 -14 -38 -1 c-42 -1 -129 18 -137 30 -3 4 -46 10 -95 13 l-90 6 55 -13 c55
-13 110 -42 110 -58 0 -5 7 -9 15 -9 8 0 15 -5 15 -10 0 -6 -10 -8 -22 -5
-113 26 -162 35 -219 41 -59 6 -68 10 -83 35 -9 15 -40 56 -68 90 l-52 62 124
-7 c69 -4 181 -19 248 -33z m-492 -47 c23 -25 55 -66 70 -92 l28 -47 -24 -16
c-82 -54 -161 -121 -281 -239 l-137 -133 -123 -34 c-68 -18 -177 -49 -242 -68
l-117 -35 -61 66 c-33 37 -68 81 -76 99 -16 32 -16 32 38 114 30 46 70 98 89
117 92 89 468 259 659 297 115 23 129 21 177 -29z m2963 -78 c21 -36 5 -79
-33 -93 -25 -8 -31 -6 -52 18 -28 33 -30 54 -8 85 22 32 73 27 93 -10z m-5172
6 c47 -13 33 -81 -23 -106 -32 -15 -57 8 -57 51 0 52 26 69 80 55z m2873 -102
c-13 -5 -90 18 -90 27 0 4 22 0 49 -8 27 -9 46 -17 41 -19z m2522 -31 c29 -26
33 -35 32 -81 -1 -70 -26 -95 -95 -95 -43 0 -54 4 -75 28 -34 40 -34 113 1
151 35 38 93 36 137 -3z m-2682 -54 c220 -66 251 -85 307 -192 44 -84 73 -178
103 -330 34 -172 34 -167 -19 -217 -67 -65 -145 -127 -238 -192 l-82 -57 -88
35 c-101 40 -248 83 -413 120 l-115 26 -52 108 c-69 142 -123 278 -129 327 -7
52 29 109 146 225 65 66 106 97 175 133 l90 48 115 -4 c85 -3 137 -11 200 -30z
m711 -45 c242 -154 485 -517 574 -857 23 -87 25 -105 14 -137 l-12 -38 -111 0
c-61 0 -134 -3 -163 -6 l-52 -7 -193 197 c-106 109 -196 205 -199 214 -4 9
-12 56 -18 104 -13 102 -54 238 -111 375 -22 53 -38 103 -36 109 8 20 152 62
252 73 5 0 30 -12 55 -27z m2057 -194 c25 -25 2 -98 -31 -98 -18 0 -47 33 -47
53 0 43 51 72 78 45z m-4317 -95 c13 -21 43 -64 66 -97 49 -66 51 -84 23 -158
-29 -74 -90 -314 -90 -351 0 -24 -10 -39 -47 -71 -115 -100 -199 -187 -253
-261 -32 -44 -66 -88 -77 -97 -18 -17 -20 -15 -59 35 -63 80 -94 140 -94 179
0 48 51 224 99 342 101 245 222 422 335 487 28 16 56 29 63 29 6 0 22 -17 34
-37z m4535 -67 c38 -38 44 -74 20 -131 -28 -65 -98 -75 -152 -21 -29 29 -34
41 -34 81 0 38 5 52 29 76 42 42 92 40 137 -5z m-3846 -23 c0 -10 13 -54 28
-98 23 -65 26 -85 17 -110 -5 -16 -13 -32 -16 -35 -3 -3 -9 -26 -13 -52 -5
-30 -12 -48 -20 -48 -8 0 -19 -13 -26 -30 -7 -16 -18 -30 -26 -30 -7 0 -11 -6
-8 -14 3 -9 -5 -15 -25 -19 -18 -4 -31 -13 -31 -22 0 -8 -5 -15 -11 -15 -12 0
-59 -46 -59 -58 0 -4 -9 -13 -20 -20 -11 -7 -20 -19 -20 -27 0 -17 -55 -22
-65 -6 -3 5 -18 12 -35 16 -16 3 -52 18 -80 31 -29 14 -65 28 -82 31 -30 6
-31 5 -24 -23 4 -16 19 -42 34 -57 22 -23 24 -27 7 -21 -11 4 -36 18 -57 30
l-36 23 24 113 c37 169 66 267 88 301 25 37 83 61 276 117 154 44 180 48 180
23z m2358 -114 c101 -23 215 -68 272 -106 24 -15 65 -41 93 -57 161 -90 261
-177 366 -318 72 -95 140 -242 124 -266 -17 -28 -37 -19 -50 23 -12 37 -12 34
-7 -45 3 -47 9 -119 14 -160 20 -167 21 -248 6 -405 -17 -174 -26 -217 -44
-223 -9 -3 -11 8 -7 40 6 42 5 42 -16 -17 -23 -64 -85 -148 -103 -142 -16 6
-12 31 33 239 23 103 44 226 47 275 11 148 -27 359 -86 478 -34 71 -144 226
-201 285 -86 89 -307 215 -466 266 -130 43 -152 60 -178 143 -7 23 -7 23 56
16 35 -3 102 -15 147 -26z m1496 -201 c22 -31 20 -75 -3 -88 -27 -14 -29 -14
-46 20 -18 35 -19 62 -3 78 18 18 35 15 52 -10z m-1485 -52 c118 -46 142 -58
239 -129 190 -137 284 -293 342 -567 39 -181 18 -369 -65 -585 -59 -156 -246
-442 -394 -605 -72 -79 -256 -250 -269 -250 -4 0 -13 4 -21 9 -11 7 -12 13 -4
23 6 7 13 28 15 46 2 18 10 37 16 41 7 4 12 12 11 17 -6 22 14 54 33 54 26 0
83 59 179 185 162 214 239 350 302 531 59 169 72 242 71 404 0 171 -13 232
-79 365 -86 175 -241 332 -402 407 -63 30 -75 40 -86 71 -9 25 11 22 112 -17z
m-949 -109 c0 -25 -2 -28 -15 -17 -14 12 -19 7 -16 -13 1 -5 -3 -6 -9 -2 -6 4
-41 -20 -78 -52 -37 -33 -96 -80 -131 -106 l-64 -48 2 -72 c3 -127 -24 -118
-55 18 -8 39 -17 79 -19 90 -3 16 30 45 167 147 l172 128 23 -22 c14 -13 23
-33 23 -51z m2611 6 c61 -36 75 -129 28 -179 -17 -18 -33 -24 -65 -24 -49 0
-78 20 -98 70 -12 29 -12 41 -1 73 26 76 74 97 136 60z m-2665 -70 c-2 -10 -7
-18 -12 -18 -5 0 -16 -4 -24 -9 -8 -5 -4 3 9 17 29 32 30 32 27 10z m-891 -18
c83 -14 165 -30 184 -35 71 -19 214 -86 227 -105 14 -22 76 -295 95 -420 16
-107 11 -116 -165 -290 -164 -163 -241 -215 -319 -215 -123 0 -393 87 -446
144 -41 44 -125 273 -141 382 -20 145 -18 154 54 246 36 46 95 113 133 150 69
68 199 168 218 168 5 0 78 -12 160 -25z m1906 0 c44 -33 135 -122 164 -160 26
-35 99 -170 109 -201 6 -20 3 -22 -61 -26 -37 -3 -74 -7 -82 -9 -8 -2 -18 10
-27 35 -7 21 -43 91 -79 156 -52 93 -67 130 -72 174 -3 33 -2 56 4 56 5 0 25
-11 44 -25z m-1061 -36 c12 -8 11 -9 -6 -4 -20 5 -40 -16 -36 -37 1 -5 -4 -8
-11 -8 -7 0 -19 -9 -27 -20 -8 -11 -21 -20 -30 -20 -16 -1 -60 -30 -45 -30 5
0 0 -6 -10 -14 -20 -14 -35 -12 -35 5 0 5 7 9 15 9 8 0 19 9 25 20 6 11 17 20
25 20 8 0 18 6 22 13 9 13 85 76 93 77 3 0 12 -5 20 -11z m-1884 -134 c38 -19
127 -75 199 -123 l129 -88 13 -103 c15 -119 40 -222 84 -348 17 -48 33 -95 36
-104 7 -24 -93 -166 -175 -248 -83 -82 -67 -79 -211 -42 -135 36 -280 110
-359 185 -61 57 -110 178 -138 341 -23 131 -16 199 26 270 66 110 260 295 310
295 9 0 48 -16 86 -35z m2780 -72 c44 -185 -21 -625 -115 -780 -28 -46 -41
-52 -61 -28 -10 13 -9 19 6 38 11 12 22 24 25 27 20 18 63 213 79 360 6 57 14
108 17 113 6 11 5 192 -3 222 -3 13 -15 26 -27 29 -19 5 -20 8 -7 16 13 8 13
10 1 10 -25 0 -94 -84 -161 -196 -35 -60 -96 -158 -136 -219 -85 -131 -138
-224 -132 -231 12 -12 161 202 323 465 49 79 91 139 93 132 9 -26 -10 -82 -41
-123 -18 -24 -70 -106 -116 -183 -124 -208 -235 -375 -246 -371 -5 1 -12 14
-16 27 -3 13 -13 42 -24 64 -10 22 -18 54 -18 70 0 17 25 91 57 165 32 74 69
176 83 225 35 129 43 145 72 157 40 15 168 38 215 38 23 0 57 8 76 19 19 10
37 17 39 15 2 -2 10 -29 17 -61z m-3433 -201 c14 -31 40 -70 57 -87 16 -16 30
-38 29 -49 0 -15 -2 -17 -6 -6 -3 8 -16 25 -29 36 -12 12 -20 25 -17 28 4 3 1
6 -5 6 -21 0 -14 -147 12 -250 53 -214 59 -250 41 -244 -18 7 -70 126 -94 214
-42 156 -55 410 -21 410 4 0 19 -26 33 -58z m5361 48 c35 -13 66 -67 66 -113
0 -31 -7 -46 -34 -73 -39 -39 -67 -43 -114 -14 -75 46 -75 155 0 197 28 15 49
16 82 3z m-6837 -15 c26 -18 47 -77 39 -110 -3 -13 -18 -37 -32 -54 -20 -24
-34 -31 -62 -31 -103 1 -138 130 -52 197 21 17 81 16 107 -2z m4807 -83 c-15
-26 -41 -67 -59 -92 -18 -25 -44 -68 -58 -96 -14 -27 -49 -83 -79 -122 -29
-39 -80 -110 -112 -156 -60 -86 -76 -96 -76 -50 0 17 20 48 61 92 33 37 67 79
75 94 16 30 132 208 216 331 56 82 80 82 32 -1z m1274 -42 c48 -82 57 -120 56
-270 0 -105 -4 -144 -17 -175 -15 -35 -17 -36 -12 -10 4 27 3 26 -15 -10 -31
-65 -66 -155 -90 -230 -12 -38 -32 -97 -45 -130 -12 -33 -26 -72 -29 -86 -3
-14 -17 -38 -31 -53 -14 -15 -28 -38 -31 -51 -4 -18 -13 -25 -30 -25 -29 0
-30 9 -4 61 40 78 112 283 137 393 21 94 25 135 25 263 0 84 -6 200 -13 259
-14 116 -11 127 41 122 18 -2 34 -18 58 -58z m-4810 -27 c3 -39 0 -44 -25 -54
-174 -70 -295 -164 -405 -316 -70 -97 -117 -221 -144 -377 -19 -108 -14 -269
11 -361 23 -87 94 -229 159 -322 l57 -81 -26 -38 c-14 -21 -28 -48 -31 -61 -4
-13 -10 -23 -14 -23 -11 0 -109 114 -149 172 -39 59 -116 247 -137 335 -22 96
-19 275 6 408 42 213 122 367 262 501 109 103 197 166 308 221 107 53 124 52
128 -4z m4062 -3 c52 -56 70 -213 37 -330 -8 -30 -18 -72 -22 -94 -3 -21 -9
-35 -12 -32 -3 3 -21 38 -39 78 -22 48 -41 76 -60 86 l-27 14 5 126 c7 154 15
182 59 182 22 0 39 -9 59 -30z m-531 -61 c-11 -29 -24 -60 -30 -70 -10 -19
-49 -45 -49 -33 0 12 88 154 96 154 2 0 -5 -23 -17 -51z m-3526 -56 c2 -5 7
-19 10 -33 6 -23 -1 -30 -64 -69 -82 -51 -215 -195 -260 -283 -46 -91 -79
-236 -79 -353 0 -183 40 -312 143 -454 57 -79 59 -85 42 -97 -10 -8 -25 -14
-32 -14 -25 0 -73 54 -104 117 -17 34 -35 65 -39 68 -19 12 -52 103 -71 190
-33 159 -21 362 31 498 50 131 235 363 330 412 45 24 85 31 93 18z m2797 -97
c36 -8 90 -25 121 -39 l56 -25 18 -73 c26 -112 31 -216 11 -262 -9 -23 -21
-37 -28 -34 -14 4 -15 20 -4 80 6 36 5 38 -16 31 -20 -6 -21 -5 -10 9 8 9 12
28 10 44 -3 27 -4 27 -37 -22 -53 -76 -115 -152 -199 -241 -43 -44 -95 -101
-118 -125 -38 -41 -80 -63 -147 -76 -38 -7 -27 17 21 45 70 41 121 87 227 210
59 67 111 122 116 122 5 0 9 4 9 10 0 5 23 39 50 76 49 66 63 104 36 104 -7 0
-33 -28 -57 -62 -45 -65 -225 -264 -364 -403 -100 -101 -103 -119 -21 -123 32
-2 71 1 86 7 18 6 31 6 38 -1 26 -26 220 110 282 200 23 33 24 33 32 12 4 -12
12 -18 18 -15 18 11 11 -21 -10 -45 -22 -26 -27 -20 -8 10 16 26 4 36 -21 18
-12 -8 -18 -18 -14 -22 4 -3 -2 -13 -13 -20 -18 -14 -18 -15 -1 -22 17 -6 17
-7 0 -23 -82 -75 -221 -135 -368 -157 -138 -21 -210 -18 -273 11 -30 14 -60
25 -66 25 -7 0 -21 28 -30 63 -15 53 -66 299 -66 318 0 4 26 26 58 50 31 24
133 117 225 208 l169 164 111 -7 c62 -4 141 -13 177 -20z m581 -77 c-5 -13
-10 -19 -10 -12 -1 15 10 45 15 40 3 -2 0 -15 -5 -28z m-3314 -33 l13 -40 -44
-45 c-163 -171 -227 -329 -210 -526 8 -91 24 -143 60 -198 19 -29 22 -42 14
-56 -5 -11 -15 -21 -20 -23 -6 -2 -12 -13 -13 -26 -2 -37 -20 -20 -64 64 -109
204 -121 385 -36 582 20 46 56 109 80 140 51 68 172 174 192 170 8 -2 20 -21
28 -42z m3265 -48 c-17 -38 -110 -141 -101 -111 6 17 113 162 117 158 2 -2 -5
-23 -16 -47z m-4698 8 c34 -14 66 -65 66 -106 0 -89 -119 -142 -176 -79 -30
33 -27 129 5 163 13 14 33 27 45 29 11 2 22 5 24 6 1 0 17 -5 36 -13z m7045
-16 c74 -75 37 -200 -58 -200 -66 0 -111 53 -111 130 0 92 104 134 169 70z
m-2275 -37 c-9 -21 -24 -47 -35 -58 -19 -19 -19 -19 -19 1 0 11 11 31 25 44
14 13 25 29 25 37 0 7 4 13 9 13 6 0 3 -17 -5 -37z m500 1 c10 -10 16 -33 16
-65 0 -28 4 -48 9 -45 5 4 11 -24 13 -61 4 -58 1 -77 -22 -128 -35 -78 -129
-215 -195 -286 -29 -30 -65 -78 -79 -107 -23 -46 -36 -58 -50 -49 -2 1 -12 -5
-22 -14 -11 -8 -38 -24 -62 -34 -59 -25 -68 -39 -51 -72 11 -21 12 -27 1 -31
-7 -2 -17 -15 -22 -27 -10 -27 -50 -54 -50 -34 0 8 -4 8 -15 -1 -13 -11 -13
-15 -3 -23 9 -6 8 -7 -5 -3 -12 4 -36 -8 -70 -32 -104 -77 -244 -150 -383
-201 -77 -28 -148 -51 -157 -51 -10 0 -17 -8 -17 -19 0 -22 -11 -27 -87 -36
-29 -4 -55 -10 -57 -14 -3 -4 -20 -8 -39 -9 -18 -1 -49 -7 -68 -12 -18 -6 -46
-10 -62 -10 -27 0 -59 -14 -85 -37 -7 -7 -21 -13 -30 -13 -9 0 -48 -7 -85 -17
-55 -13 -70 -14 -77 -4 -6 10 -12 10 -28 2 -31 -16 -54 -14 -50 6 4 20 61 41
135 49 51 5 113 22 87 23 -6 1 -51 -6 -99 -14 -48 -9 -102 -13 -121 -9 -22 4
-34 2 -34 -5 0 -6 -5 -11 -11 -11 -12 0 -2 88 13 107 12 15 83 36 234 68 197
42 485 148 667 244 285 150 469 300 664 541 69 85 100 136 164 267 65 133 94
179 116 183 1 0 9 -7 17 -16z m-2420 -113 c17 -11 63 -31 101 -46 39 -15 80
-32 93 -38 21 -10 22 -12 5 -18 -23 -8 -106 12 -160 38 l-43 21 -120 -119
c-103 -102 -120 -123 -114 -142 5 -17 1 -15 -21 11 l-27 32 58 78 c83 111 165
202 182 202 8 0 29 -9 46 -19z m3701 -123 c14 -200 -32 -430 -141 -700 -92
-231 -236 -448 -429 -650 -90 -94 -118 -110 -169 -98 -21 5 -45 6 -52 3 -8 -3
-14 -3 -14 -1 0 3 69 74 153 159 114 114 172 182 226 262 136 206 152 238 257
535 52 148 68 212 114 472 12 69 24 132 27 140 9 28 21 -24 28 -122z m-5031
90 c8 -23 4 -36 -28 -85 -76 -118 -95 -171 -108 -291 -10 -96 -14 -110 -26
-99 -8 7 -18 10 -21 7 -3 -3 -8 6 -9 20 -2 14 -8 29 -13 34 -15 16 -10 168 7
227 17 56 66 137 115 190 35 38 69 36 83 -3z m2790 -15 c-15 -62 -44 -103
-149 -208 -60 -61 -125 -123 -143 -138 -30 -26 -52 -28 -52 -6 0 5 54 65 121
133 66 69 141 152 165 185 48 66 68 78 58 34z m-2305 -83 c100 -58 191 -93
316 -125 l90 -22 59 -89 c33 -49 96 -126 142 -171 45 -46 79 -83 75 -83 -11 0
-93 56 -201 138 -39 29 -50 32 -114 32 -69 0 -196 -33 -205 -53 -2 -5 -14 -20
-27 -35 l-23 -27 -91 93 c-113 115 -130 149 -130 262 0 81 7 130 17 130 3 0
44 -22 92 -50z m1106 20 c4 -6 -5 -10 -20 -10 -15 0 -24 4 -20 10 3 6 12 10
20 10 8 0 17 -4 20 -10z m123 -35 c12 -11 -5 -10 -38 2 l-35 14 34 -6 c19 -3
37 -7 39 -10z m2535 -59 c14 -51 57 -97 57 -62 0 9 6 16 14 16 12 0 12 -7 3
-37 -6 -21 -19 -49 -29 -62 -10 -13 -18 -30 -18 -37 0 -8 -4 -14 -9 -14 -5 0
-15 -16 -22 -35 -7 -19 -16 -35 -20 -35 -4 0 -10 -11 -13 -25 -5 -19 -13 -25
-34 -25 -20 0 -23 -3 -13 -9 12 -7 12 -13 3 -24 -7 -7 -10 -16 -7 -19 3 -3 -3
-12 -13 -21 -17 -16 -20 -15 -40 13 -13 17 -18 30 -12 30 5 0 10 9 10 20 0 10
6 23 13 27 8 4 17 19 20 33 l6 25 -17 -22 c-50 -63 -97 -136 -97 -151 -1 -9
-6 -16 -13 -15 -6 2 -16 -7 -23 -18 -6 -12 -7 -19 -1 -15 5 3 20 -3 32 -14 13
-11 18 -20 11 -20 -7 0 -9 -5 -6 -11 4 -6 -2 -17 -14 -25 -12 -8 -21 -21 -21
-29 0 -19 -61 -105 -75 -105 -6 0 -25 -13 -43 -30 -18 -16 -36 -30 -40 -30 -4
0 -15 -8 -24 -17 -30 -32 -47 -43 -67 -43 -25 0 -71 -20 -71 -32 0 -4 -8 -8
-17 -8 -22 -1 -55 -24 -51 -37 3 -11 -44 -52 -87 -76 -16 -9 -100 -51 -185
-93 -85 -41 -163 -83 -174 -92 -10 -9 -19 -15 -20 -13 -2 8 -75 -20 -86 -34
-7 -8 -16 -12 -21 -9 -5 3 -9 1 -9 -4 0 -9 -138 -72 -202 -92 -21 -6 -43 -8
-49 -4 -7 4 -9 3 -6 -3 8 -13 -78 -47 -94 -37 -7 4 -9 3 -6 -3 13 -20 -105
-47 -218 -50 -136 -4 -415 7 -415 16 0 4 84 22 188 40 103 18 242 49 310 67
281 77 609 225 805 362 60 43 126 88 147 102 109 73 288 237 403 370 105 122
234 308 269 387 23 54 58 97 69 86 4 -5 14 -30 22 -57z m-4061 -130 c39 -56
101 -137 138 -181 36 -44 74 -91 83 -104 l16 -25 -87 -44 c-85 -42 -205 -92
-224 -92 -18 0 -70 65 -97 120 -24 50 -26 66 -25 170 0 120 14 177 64 259 21
32 22 33 41 15 11 -10 52 -63 91 -118z m2982 33 c-21 -42 -173 -199 -192 -199
-9 0 -1 15 23 43 48 54 177 187 182 187 2 0 -4 -14 -13 -31z m-160 -29 c-18
-30 -44 -47 -44 -29 0 11 45 59 55 59 3 0 -2 -13 -11 -30z m-4508 -21 c24 -25
29 -39 29 -80 0 -44 -4 -54 -33 -80 -52 -46 -117 -37 -147 21 -58 112 66 228
151 139z m524 6 c8 -10 8 -39 1 -104 -11 -101 -1 -238 25 -331 35 -123 150
-303 282 -438 29 -31 42 -52 42 -72 0 -16 3 -35 6 -44 15 -38 -28 -9 -122 84
-100 98 -127 114 -99 59 8 -15 15 -44 15 -64 0 -19 5 -35 10 -35 6 0 10 -5 10
-12 0 -6 10 -22 22 -35 12 -13 19 -25 16 -28 -6 -6 -124 131 -176 207 -67 94
-90 140 -108 210 -21 86 -14 115 34 136 l37 17 -33 3 c-41 4 -57 28 -78 117
-32 138 -1 335 54 347 24 5 49 -2 62 -17z m6499 1 c72 -77 20 -206 -77 -192
-42 6 -58 20 -82 67 -22 43 -15 87 22 126 31 33 105 33 137 -1z m-2634 -112
c-58 -49 -85 -66 -85 -53 0 9 -4 8 -15 -1 -8 -7 -15 -21 -15 -31 0 -12 -5 -16
-15 -13 -24 10 -18 27 25 69 39 38 67 43 39 8 -13 -17 -13 -17 6 -3 11 8 29
23 39 33 11 9 27 17 35 17 11 -1 6 -9 -14 -26z m-1346 -134 c14 0 61 -52 61
-66 0 -8 -7 -14 -15 -14 -8 0 -33 -27 -55 -60 -22 -33 -57 -71 -78 -85 -47
-32 -151 -65 -208 -65 -113 0 -242 51 -324 129 -18 18 -65 48 -102 67 -72 36
-80 50 -48 79 15 13 30 16 65 13 44 -5 58 -13 175 -98 77 -56 146 -80 228 -80
91 0 164 41 204 115 29 54 55 78 76 70 8 -3 17 -5 21 -5z m935 -20 c-5 -5 -45
-17 -89 -26 -43 -9 -90 -24 -104 -35 -48 -34 -207 -52 -217 -24 -13 32 14 42
129 48 61 4 146 15 187 26 89 22 108 25 94 11z m1923 -66 c23 -23 25 -31 20
-81 -15 -140 -135 -273 -247 -273 -39 0 -42 2 -61 46 -35 77 -8 163 79 257 53
56 90 76 145 77 28 0 45 -7 64 -26z m-3675 -36 c70 -37 79 -52 50 -80 l-21
-21 -70 52 c-39 29 -71 59 -71 67 0 24 49 16 112 -18z m-2209 -69 c23 -25 27
-38 27 -88 0 -63 -11 -81 -63 -100 -36 -14 -58 -2 -86 44 -24 42 -27 82 -7
129 26 62 78 68 129 15z m2078 -5 c63 -50 75 -80 36 -90 -18 -4 -40 6 -90 43
-68 50 -75 61 -55 81 21 21 49 13 109 -34z m4834 40 c22 -9 45 -57 45 -96 0
-43 -31 -93 -70 -113 -34 -17 -51 -12 -86 27 -39 42 -46 66 -34 103 21 63 89
100 145 79z m-5641 -65 c-3 -5 -10 -7 -15 -3 -5 3 -7 10 -3 15 3 5 10 7 15 3
5 -3 7 -10 3 -15z m-1603 -1 c0 -10 2 -10 6 -1 3 10 7 10 18 0 7 -7 11 -16 8
-20 -3 -4 1 -14 7 -22 23 -28 0 -15 -30 16 -33 35 -35 39 -20 39 6 0 10 -6 11
-12z m1723 -29 c-12 -19 -39 -9 -39 15 0 22 1 22 22 8 13 -8 20 -18 17 -23z
m556 -18 c68 -49 77 -66 48 -85 -18 -11 -22 -10 -85 32 -23 14 -23 14 -17 -32
6 -42 5 -46 -14 -46 -39 0 -57 69 -24 90 14 9 11 10 -16 7 -23 -2 -36 1 -39
10 -7 17 45 73 66 72 9 0 45 -22 81 -48z m518 -48 c177 -156 207 -194 162
-208 -11 -3 -26 -13 -34 -20 -12 -12 -18 -9 -40 23 -14 20 -66 77 -116 127
-83 82 -101 111 -83 128 17 18 51 2 111 -50z m-720 -24 c42 -31 59 -65 48 -94
-3 -8 -13 -15 -23 -15 -23 1 -146 117 -138 130 13 21 71 10 113 -21z m543 -22
c14 -12 67 -66 118 -121 98 -106 99 -111 40 -141 -25 -14 -28 -13 -45 13 -9
15 -58 71 -108 125 -50 54 -93 103 -95 109 -5 14 27 38 48 38 9 0 28 -10 42
-23z m-766 -46 c40 -18 129 -103 185 -177 37 -49 40 -71 5 -48 -22 15 -26 15
-40 0 -11 -11 -12 -16 -4 -16 7 0 10 -2 7 -5 -6 -6 -124 10 -218 30 -36 8
-126 26 -200 41 -130 25 -190 45 -190 63 0 20 77 82 119 95 40 14 176 31 266
34 17 1 48 -7 70 -17z m1494 -17 c-37 -39 -159 -89 -159 -64 0 6 5 8 10 5 6
-3 10 2 10 12 0 10 14 31 31 46 25 22 40 26 80 25 l50 -1 -22 -23z m-3300 -51
c-12 -31 -3 -45 24 -42 12 2 38 -5 57 -16 31 -16 33 -19 15 -26 -44 -17 -62
-10 -101 41 -21 28 -42 50 -46 50 -4 0 -8 5 -8 11 0 6 7 9 15 5 10 -4 15 1 15
16 0 20 1 20 19 4 16 -14 18 -23 10 -43z m2440 15 c83 -91 161 -183 161 -190
0 -4 -5 -8 -11 -8 -6 0 -23 -9 -38 -19 l-28 -20 -59 72 c-33 40 -77 95 -97
124 l-38 51 23 16 c33 24 44 20 87 -26z m4603 5 c28 -25 21 -56 -28 -130 -25
-37 -72 -121 -104 -185 -32 -64 -78 -143 -102 -175 -89 -121 -246 -302 -350
-404 l-108 -106 0 78 c0 56 4 80 14 86 26 15 175 185 274 312 109 140 251 370
294 474 15 38 30 73 33 77 7 11 53 -5 77 -27z m-6660 -7 c10 -13 26 -47 37
-76 31 -81 135 -256 201 -339 78 -98 85 -115 70 -186 l-12 -56 -66 88 c-65 86
-110 164 -191 328 -22 44 -65 108 -95 143 -31 35 -56 67 -56 73 0 5 9 18 20
29 27 27 71 25 92 -4z m1907 -74 c26 -27 65 -76 89 -110 l42 -61 -22 -15 c-40
-28 -64 -20 -99 32 -18 26 -58 73 -88 105 -30 31 -52 59 -50 60 25 20 56 37
68 37 8 0 35 -22 60 -48z m3483 21 c22 -20 24 -37 3 -29 -8 3 -15 1 -15 -5 0
-5 -19 -19 -42 -29 -24 -11 -38 -20 -33 -20 6 -1 -5 -7 -22 -15 -18 -8 -33
-19 -33 -24 0 -6 -13 -17 -28 -25 -15 -8 -49 -34 -75 -58 -91 -83 -158 -129
-207 -142 -22 -6 -23 -6 -6 5 10 6 28 20 40 29 12 10 77 65 146 121 69 57 151
127 183 156 32 29 61 53 64 53 4 0 15 -7 25 -17z m-2272 -26 c0 -29 -9 -41
-45 -59 -50 -26 -313 -115 -435 -148 -63 -17 -178 -51 -255 -74 -286 -89 -491
-118 -642 -92 -139 24 -697 171 -812 213 -41 16 -43 18 -37 51 3 19 8 37 11
40 3 3 74 -17 158 -46 179 -60 489 -146 624 -173 191 -39 345 -25 620 56 65
19 174 51 243 70 152 42 466 147 518 174 42 22 52 19 52 -12z m1013 -4 c-7 -2
-19 -2 -25 0 -7 3 -2 5 12 5 14 0 19 -2 13 -5z m2735 -104 c76 -37 101 -126
62 -218 l-21 -47 -97 -17 c-53 -9 -107 -14 -120 -10 -72 18 -46 223 34 280 56
39 81 41 142 12z m-6988 -43 c76 -50 121 -210 74 -264 -10 -12 -24 -22 -31
-22 -16 0 -32 31 -25 49 4 11 -5 12 -44 5 -27 -4 -64 -8 -82 -8 -45 1 -88 44
-101 103 -9 40 -7 52 12 91 40 81 117 99 197 46z m4167 22 c-8 -4 -27 -3 -43
1 -26 8 -25 9 13 8 25 -1 37 -4 30 -9z m-77 -18 c0 -5 -4 -10 -9 -10 -6 0 -13
5 -16 10 -3 6 1 10 9 10 9 0 16 -4 16 -10z m-970 -64 c0 -52 -102 -126 -151
-111 -21 7 -53 60 -44 74 3 5 26 12 53 16 26 3 65 15 87 25 53 24 55 24 55 -4z
m216 0 c0 -13 -3 -23 -5 -20 -2 2 -15 -11 -28 -28 -12 -18 -23 -28 -23 -23 0
9 49 95 54 95 2 0 3 -11 2 -24z m567 7 c-7 -2 -21 -2 -30 0 -10 3 -4 5 12 5
17 0 24 -2 18 -5z m-113 -23 c0 -5 -7 -10 -16 -10 -8 0 -12 5 -9 10 3 6 10 10
16 10 5 0 9 -4 9 -10z m-63 -16 c-3 -3 -12 -4 -19 -1 -8 3 -5 6 6 6 11 1 17
-2 13 -5z m-2548 -49 c19 -6 36 -16 38 -22 6 -16 -37 -63 -57 -63 -28 0 -80
48 -80 74 0 39 13 41 99 11z m3603 -37 c-6 -6 -15 -8 -19 -4 -4 4 -1 11 7 16
8 5 17 7 19 4 3 -2 -1 -10 -7 -16z m-2076 -35 c-15 -63 -56 -93 -110 -79 -22
5 -46 43 -46 71 0 13 70 31 134 34 26 1 28 -1 22 -26z m2324 23 c0 -5 -79 -56
-87 -56 -5 0 12 14 37 30 46 31 50 33 50 26z m-4038 -77 c20 7 29 6 37 -3 9
-11 4 -15 -20 -20 -34 -7 -79 15 -115 56 -13 15 -6 12 27 -11 38 -27 49 -30
71 -22z m491 41 c34 0 37 -2 37 -30 0 -34 -31 -70 -60 -70 -27 0 -78 49 -86
84 -7 29 -7 29 32 23 21 -4 56 -7 77 -7z m797 -66 c0 -42 -62 -91 -101 -79
-24 8 -44 44 -32 56 11 11 90 37 116 38 9 1 17 -6 17 -15z m-347 -21 c37 -3
67 -9 67 -13 0 -4 -9 -19 -21 -34 -17 -22 -28 -26 -70 -26 -42 0 -55 5 -80 29
-16 16 -29 37 -29 46 0 14 6 16 33 11 17 -4 62 -10 100 -13z m-1715 -56 c23
-23 42 -45 42 -49 0 -3 -30 -8 -67 -12 -38 -3 -96 -9 -130 -12 -44 -5 -63 -3
-63 5 0 6 10 15 23 20 12 5 47 27 77 50 30 22 59 41 65 41 6 0 30 -19 53 -43z
m6507 8 c23 -20 45 -45 48 -56 5 -20 3 -20 -68 -14 -40 4 -88 10 -105 14 l-32
6 46 43 c25 23 51 42 57 42 6 0 30 -16 54 -35z m-5585 -167 l0 -88 -195 0
-196 0 3 -87 3 -88 163 -3 162 -2 0 -49 c0 -27 3 -63 6 -80 l7 -31 -170 0
-170 0 -6 -82 c-4 -46 -7 -122 -7 -170 l0 -88 -80 0 -80 0 0 363 c0 199 3 391
6 427 l6 65 274 0 274 0 0 -87z m505 76 c75 -19 127 -49 199 -115 171 -156
167 -424 -10 -602 -163 -164 -391 -171 -544 -18 -127 127 -167 351 -91 505 93
189 265 278 446 230z m935 -21 c94 -46 182 -129 221 -209 99 -202 -7 -484
-220 -582 -46 -22 -71 -26 -141 -27 -77 0 -92 3 -152 33 -87 43 -178 138 -208
218 -77 208 -15 426 155 538 81 54 119 66 205 63 62 -2 87 -8 140 -34z m906
23 c1 0 -1 -38 -4 -83 l-5 -83 -113 0 -114 0 0 -334 0 -334 -82 -4 c-46 -2
-86 -2 -90 0 -5 2 -8 154 -8 338 l0 334 -77 0 c-43 0 -95 3 -115 6 l-38 7 0
84 0 85 323 -7 c177 -4 323 -8 323 -9z m1241 -3 c19 -57 241 -615 279 -703 68
-155 73 -140 -44 -140 l-100 0 -12 38 c-7 20 -21 58 -32 83 l-20 47 -151 -2
c-120 -2 -152 -5 -155 -17 -19 -59 -46 -121 -58 -134 -11 -11 -38 -15 -100
-15 -46 0 -84 4 -84 9 0 5 53 143 119 307 65 165 135 346 156 404 54 150 44
140 126 140 57 0 71 -3 76 -17z m573 -320 l0 -338 167 0 168 0 0 -90 0 -90
-257 -3 -258 -2 0 424 0 425 78 4 c42 1 83 4 90 5 9 2 12 -71 12 -335z m-1278
317 c61 -17 131 -71 156 -120 44 -88 25 -175 -52 -236 l-35 -28 49 -28 c63
-36 90 -85 90 -164 0 -72 -26 -129 -82 -179 -79 -72 -106 -78 -355 -83 l-223
-5 -2 427 -3 426 210 0 c116 0 227 -5 247 -10z m1890 -292 c-2 -167 0 -318 3
-336 l6 -34 123 7 c68 4 146 4 175 0 l51 -7 0 -89 0 -89 -266 2 -265 3 -4 380
c-1 209 -1 399 2 423 l6 42 86 0 86 0 -3 -302z m-5597 170 c56 -28 93 -65 122
-122 49 -97 39 -267 -20 -348 -11 -15 -48 -42 -81 -58 -112 -57 -264 -35 -347
49 -115 115 -117 303 -6 419 82 86 226 112 332 60z m6421 17 c73 -22 142 -79
177 -148 27 -51 31 -69 31 -140 0 -97 -19 -142 -85 -201 -94 -86 -236 -114
-334 -66 -167 81 -221 343 -97 473 80 84 198 115 308 82z m-6946 -5 c0 -5 -5
-10 -11 -10 -5 0 -7 5 -4 10 3 6 8 10 11 10 2 0 4 -4 4 -10z m6434 -286 c-9
-38 -18 -75 -20 -81 -2 -8 -20 -13 -43 -13 -50 0 -62 26 -35 75 14 26 103 99
112 91 1 -2 -5 -34 -14 -72z m254 -370 c39 -15 72 -30 72 -35 0 -8 -139 -54
-145 -47 -6 8 -13 108 -7 108 4 0 40 -12 80 -26z m-6033 -5 c4 -11 4 -32 0
-46 -5 -22 -10 -25 -37 -19 -17 3 -50 6 -74 6 -66 0 -56 23 24 53 83 32 79 31
87 6z m6480 -24 c33 -32 31 -47 -9 -89 -41 -44 -64 -45 -100 -7 -22 23 -27 36
-22 56 16 64 86 86 131 40z m-6909 -20 c20 -48 18 -71 -8 -89 -34 -24 -66 -19
-99 13 -32 32 -31 50 4 89 14 14 32 22 54 22 29 0 36 -5 49 -35z m332 -160
c51 -22 185 -34 464 -41 232 -7 237 -8 248 -30 20 -36 6 -70 -31 -78 -47 -9
-517 -6 -568 3 -26 5 -53 19 -68 35 -28 30 -60 33 -109 10 -95 -45 -82 -146
23 -191 32 -13 80 -15 313 -12 464 5 547 2 570 -21 23 -23 26 -62 6 -79 -10
-9 -136 -14 -444 -18 -381 -5 -435 -4 -486 11 -131 38 -209 187 -161 304 44
103 144 148 243 107z m6303 -8 c47 -31 89 -116 89 -182 0 -78 -39 -147 -108
-193 l-55 -37 -486 3 c-523 4 -504 2 -533 55 -7 15 -4 25 14 44 l23 26 459 -6
c504 -6 488 -8 540 53 45 54 27 98 -52 124 -50 17 -82 13 -82 -8 0 -12 -384
-26 -720 -26 -115 0 -117 0 -143 28 -30 31 -29 50 6 72 17 12 89 16 352 22
256 5 355 11 440 26 155 28 214 27 256 -1z m-4801 -77 l0 -85 -110 0 -110 0 0
-357 0 -358 -94 0 -94 0 -5 253 c-2 138 -4 299 -3 357 l1 105 -110 1 -110 1
-5 82 c-3 46 -3 85 0 88 2 2 148 3 322 1 l318 -3 0 -85z m495 79 c106 -19 194
-80 237 -164 25 -48 35 -162 19 -221 -13 -50 -74 -122 -118 -140 -18 -8 -33
-19 -33 -24 0 -20 58 -137 113 -229 31 -52 57 -96 57 -98 0 -1 -47 -3 -104 -3
l-104 0 -73 145 -74 145 -72 0 -73 0 0 -150 0 -150 -87 2 c-49 2 -91 8 -95 13
-4 6 -8 207 -8 448 l0 437 178 0 c98 0 205 -5 237 -11z m785 -26 c7 -21 41
-112 77 -203 71 -182 176 -454 220 -570 15 -41 29 -78 31 -82 6 -13 -191 1
-200 14 -4 7 -20 48 -34 92 l-26 78 -157 -7 c-86 -4 -157 -8 -157 -9 -1 0 -13
-37 -26 -81 l-25 -80 -97 -3 c-61 -2 -96 1 -96 8 0 21 160 433 248 637 34 78
67 162 74 185 6 24 17 46 23 50 5 4 38 8 72 8 l61 0 12 -37z m458 -105 c28
-79 72 -208 97 -288 59 -179 60 -182 74 -150 20 49 149 387 183 480 l35 95 96
3 c54 1 97 0 97 -2 0 -3 -14 -40 -31 -83 -17 -43 -42 -109 -56 -148 -14 -38
-55 -144 -93 -235 -37 -91 -89 -222 -116 -293 l-49 -127 -84 2 -83 3 -42 120
c-24 66 -59 165 -78 220 -20 55 -67 188 -103 295 -37 107 -73 205 -81 216 -7
12 -10 24 -7 28 4 3 48 6 98 6 l92 0 51 -142z m1246 125 c-1 -7 -2 -44 -2 -83
l-2 -70 -67 0 c-38 0 -132 -3 -210 -7 l-143 -6 0 -94 0 -93 180 0 180 0 0 -80
0 -80 -178 0 -178 0 0 -95 1 -95 208 0 207 0 0 -85 0 -85 -293 0 -294 0 -6
152 c-4 83 -7 281 -7 439 l0 288 48 3 c26 2 162 3 302 3 198 0 255 -3 254 -12z
m290 -53 c3 -36 6 -194 6 -352 l0 -288 179 0 180 0 3 -86 c2 -47 1 -88 -1 -90
-2 -2 -122 -4 -266 -4 l-262 0 -6 143 c-4 78 -7 277 -7 443 l0 300 84 0 84 -1
6 -65z m1123 -501 c17 -5 51 -32 76 -58 92 -98 72 -221 -44 -271 -43 -18 -66
-21 -130 -18 -65 3 -81 7 -103 27 -57 54 -17 78 74 46 58 -21 67 -19 101 14
54 55 28 139 -48 154 -14 2 -148 2 -297 0 -268 -5 -271 -5 -298 16 -31 25 -36
62 -12 82 30 25 605 32 681 8z m-4995 -20 c23 -31 13 -63 -24 -75 -13 -5 -143
-7 -291 -6 -297 3 -316 -1 -336 -59 -15 -44 -14 -71 5 -98 16 -22 21 -23 98
-17 87 7 100 3 110 -30 15 -49 -85 -83 -190 -66 -172 29 -210 250 -60 350 l49
32 310 -2 310 -3 19 -26z m4620 -226 c10 -9 18 -26 18 -39 0 -67 -36 -84 -175
-84 -119 0 -122 2 -108 72 l9 43 89 7 c50 5 94 10 100 12 22 10 49 5 67 -11z
m-4599 -13 c10 -11 17 -86 8 -99 -7 -10 -39 -14 -133 -15 -104 -1 -128 2 -151
17 -16 10 -31 25 -34 33 -7 20 17 64 39 73 18 7 264 -1 271 -9z m4707 -242
c93 -47 118 -165 53 -246 -41 -51 -88 -66 -150 -47 -56 17 -99 54 -120 103
-29 68 10 161 81 193 54 24 82 24 136 -3z m-4960 -10 c76 -52 97 -123 58 -197
-31 -60 -66 -83 -130 -88 -67 -5 -111 20 -138 80 -25 55 -25 100 1 147 42 75
143 103 209 58z m4374 -10 c242 -84 320 -335 173 -555 -42 -62 -124 -106 -211
-111 -171 -11 -314 129 -286 280 6 28 10 52 10 54 0 2 16 22 36 43 65 73 144
78 215 14 45 -40 51 -79 18 -108 -21 -20 -15 -21 -108 17 -42 17 -61 5 -61
-38 0 -82 82 -151 168 -141 124 14 205 159 158 282 -22 55 -86 114 -152 137
-46 17 -169 18 -1929 19 -1711 1 -1884 -1 -1925 -15 -53 -20 -83 -46 -121
-105 -58 -90 -27 -229 62 -288 57 -38 139 -39 191 -3 91 62 91 170 -1 170 -24
0 -43 -8 -63 -27 -27 -26 -28 -26 -48 -8 -25 23 -25 39 0 80 55 89 211 86 264
-5 26 -44 28 -151 3 -197 -31 -59 -81 -106 -142 -135 -69 -32 -125 -36 -205
-12 -64 19 -144 93 -186 175 -25 47 -29 65 -29 144 0 80 3 97 29 147 58 115
155 182 284 198 37 4 909 7 1937 6 1734 -1 1874 -2 1919 -18z m-2517 -292 c37
-24 73 -83 73 -117 0 -35 -32 -82 -97 -144 l-58 -55 77 0 c42 0 80 -5 83 -10
4 -6 4 -29 0 -50 l-7 -40 -160 0 -160 0 7 37 c5 30 26 56 111 138 57 55 104
108 104 118 0 23 -35 57 -59 57 -11 0 -33 -11 -49 -25 -36 -30 -63 -32 -86 -6
-24 26 -14 53 31 87 62 47 129 51 190 10z m443 0 c60 -39 94 -98 98 -171 5
-78 -10 -126 -57 -178 -86 -95 -204 -87 -278 20 -47 66 -58 176 -24 241 22 43
75 96 111 111 36 16 109 4 150 -23z m382 24 c52 -15 108 -80 108 -126 0 -48
-18 -79 -89 -149 -70 -68 -67 -75 27 -75 l62 0 0 -45 0 -45 -155 0 -155 0 0
41 c0 39 5 46 105 142 88 83 105 105 103 126 -2 21 -11 28 -42 36 -35 8 -40 7
-60 -18 -13 -16 -32 -27 -46 -27 -28 0 -60 26 -60 50 0 24 51 69 96 85 48 17
59 18 106 5z m476 -122 c3 -127 3 -128 26 -128 26 0 36 -17 36 -61 0 -25 -4
-29 -30 -29 l-29 0 6 -50 6 -50 -52 0 -51 0 0 50 0 50 -105 0 -105 0 0 40 c0
55 26 100 109 194 39 43 73 87 77 98 5 16 14 19 57 16 l52 -3 3 -127z m-2039
76 c48 -34 75 -137 51 -198 -16 -42 -86 -96 -125 -96 -10 0 -23 -7 -30 -16
-10 -15 -14 -13 -34 14 -55 78 -65 171 -26 238 41 69 112 94 164 58z m2723
-16 c39 -42 58 -90 58 -148 0 -38 -7 -58 -34 -96 -19 -27 -40 -47 -48 -45 -7
2 -35 6 -61 9 -60 6 -92 43 -109 127 -10 54 -10 61 12 101 45 86 128 110 182
52z m-2421 -45 c32 -19 54 -62 45 -91 -11 -33 -54 -65 -87 -65 -23 0 -40 8
-61 31 -38 44 -37 82 3 116 36 30 60 32 100 9z m2070 -6 c42 -28 48 -68 19
-114 -47 -78 -172 -9 -145 79 7 19 60 58 81 58 6 0 26 -10 45 -23z"/>
<path d="M6090 8243 c-8 -3 -27 -17 -42 -31 -38 -36 -39 -98 -2 -133 38 -36
107 -34 140 4 47 55 44 115 -9 147 -32 20 -58 24 -87 13z"/>
<path d="M6563 8216 c-89 -29 -168 -98 -204 -181 -32 -72 -33 -192 -1 -257 33
-67 106 -145 166 -176 73 -37 180 -37 259 1 64 32 130 99 160 165 33 71 31
198 -4 272 -66 141 -238 221 -376 176z m203 -117 c24 -19 16 -29 -23 -28 -57
1 -87 13 -91 33 -4 17 1 18 48 13 29 -4 58 -12 66 -18z m-167 -19 c12 -17 43
-41 69 -53 59 -28 62 -32 62 -88 0 -49 -9 -65 -57 -97 -45 -31 -78 -27 -156
19 l-70 41 6 56 c3 31 14 67 25 81 18 25 78 71 92 71 3 0 16 -14 29 -30z m242
-84 c10 -22 19 -60 19 -84 0 -41 -1 -43 -27 -40 -35 4 -53 38 -53 104 0 49 14
79 33 67 5 -3 18 -24 28 -47z m-351 -185 c-1 -25 -1 -25 -15 -7 -8 11 -15 29
-15 39 0 16 3 17 15 7 8 -7 15 -24 15 -39z m264 -57 c18 -18 19 -24 7 -42 -16
-26 -143 -43 -156 -21 -11 17 25 48 74 64 59 18 57 18 75 -1z"/>
<path d="M3143 7870 c-61 -37 -73 -106 -29 -165 47 -61 137 -56 177 9 34 56
21 116 -35 154 -40 27 -71 28 -113 2z"/>
<path d="M7095 7755 c-33 -32 -34 -84 -2 -112 41 -39 97 -31 123 18 42 83 -56
160 -121 94z"/>
<path d="M1895 7606 c-103 -27 -180 -70 -263 -150 -65 -62 -101 -113 -130
-186 -31 -76 -54 -213 -47 -280 26 -227 169 -429 355 -501 70 -27 202 -36 299
-19 253 43 461 286 478 560 9 156 -44 299 -158 424 -114 124 -212 167 -383
165 -55 0 -123 -6 -151 -13z m339 -176 c23 -11 68 -47 101 -80 49 -50 57 -62
45 -70 -8 -6 -23 -8 -32 -6 -9 2 -15 -1 -12 -8 9 -24 -42 -101 -92 -137 l-52
-38 -53 40 c-30 23 -75 51 -101 65 -41 21 -48 29 -56 66 l-10 43 -1 -42 c-1
-40 -3 -43 -82 -99 l-81 -57 -59 28 c-32 16 -59 33 -59 39 0 6 -12 34 -27 63
l-26 53 29 37 c16 20 56 54 87 77 57 40 57 40 72 19 8 -11 44 -33 81 -47 l66
-27 91 50 c51 28 101 50 111 51 11 0 38 -9 60 -20z m-495 -321 l48 -20 23
-100 c24 -107 23 -114 -21 -168 l-20 -25 -56 19 c-74 25 -98 46 -117 102 -21
62 -21 68 13 116 15 23 36 54 45 70 20 32 24 33 85 6z m641 -17 c50 -48 51
-73 8 -155 -33 -61 -94 -117 -129 -117 -10 0 -34 14 -54 31 -42 37 -43 56 -12
151 21 64 25 68 77 97 30 16 58 30 62 30 4 1 25 -16 48 -37z m-233 -267 c22
-15 63 -110 63 -144 0 -40 -93 -91 -167 -91 -37 0 -138 47 -165 76 -31 35 -39
72 -23 110 8 19 21 37 29 40 13 5 109 15 221 23 11 0 30 -6 42 -14z"/>
<path d="M7309 7561 c-23 -24 -29 -38 -29 -74 0 -39 5 -49 35 -76 20 -17 44
-31 55 -31 55 0 100 49 100 110 0 42 -15 67 -50 85 -44 23 -78 19 -111 -14z"/>
<path d="M2822 7320 c-46 -28 -68 -82 -53 -131 30 -100 168 -123 221 -37 25
42 25 84 0 125 -37 61 -108 79 -168 43z"/>
<path d="M7505 7297 c-51 -51 -43 -120 20 -161 52 -34 135 21 135 90 0 43 -43
92 -87 100 -28 6 -38 1 -68 -29z"/>
<path d="M7763 6983 c-14 -5 -17 -50 -7 -77 7 -19 74 -22 92 -4 43 43 -23 106
-85 81z"/>
<path d="M2705 6795 c-36 -35 -34 -85 6 -130 45 -51 107 -44 142 15 24 40 21
74 -9 109 -22 26 -33 31 -70 31 -34 0 -51 -6 -69 -25z"/>
<path d="M2534 6489 c-22 -24 -21 -28 18 -51 35 -22 82 -23 102 -2 19 18 20
28 6 55 -16 28 -100 27 -126 -2z"/>
<path d="M2114 6256 c-37 -37 -42 -62 -19 -106 51 -99 195 -67 195 43 0 44
-67 97 -122 97 -11 0 -35 -15 -54 -34z"/>
<path d="M6423 6985 c3 -27 9 -68 15 -89 7 -27 8 -57 1 -90 -8 -44 -7 -53 10
-69 10 -11 24 -16 30 -12 13 7 11 27 -21 180 -23 116 -41 156 -35 80z"/>
<path d="M4345 7260 c-13 -6 -15 -9 -5 -9 8 0 22 4 30 9 18 12 2 12 -25 0z"/>
<path d="M4298 7243 c7 -3 16 -2 19 1 4 3 -2 6 -13 5 -11 0 -14 -3 -6 -6z"/>
<path d="M6859 5168 c-7 -13 -25 -39 -41 -58 -27 -34 -37 -57 -19 -46 17 11
91 126 81 126 -5 0 -15 -10 -21 -22z"/>
<path d="M5024 5894 c-18 -14 -18 -15 4 -4 12 6 22 13 22 15 0 8 -5 6 -26 -11z"/>
<path d="M4900 5850 c-47 -16 -76 -29 -64 -29 25 -1 134 35 148 49 12 12 19
14 -84 -20z"/>
<path d="M3726 5701 c16 -16 199 -71 235 -71 51 1 21 14 -111 49 -125 34 -139
36 -124 22z"/>
<path d="M6344 6497 c-16 -18 -37 -52 -48 -77 -10 -25 -22 -53 -27 -62 -5 -10
-9 -23 -9 -30 0 -7 16 14 36 47 20 32 49 78 65 101 16 24 29 45 29 48 0 15
-21 3 -46 -27z"/>
<path d="M5606 5904 c-5 -14 -4 -15 9 -4 17 14 19 20 6 20 -5 0 -12 -7 -15
-16z"/>
<path d="M5478 5789 c-126 -148 -141 -172 -57 -95 96 89 193 216 165 216 -3 0
-51 -54 -108 -121z"/>
<path d="M5595 5788 c-61 -68 -139 -154 -175 -192 -44 -48 -55 -64 -35 -51 34
20 125 114 247 253 45 50 86 92 90 92 4 0 8 5 8 10 0 28 -36 -1 -135 -112z"/>
<path d="M5749 5852 c-24 -27 -73 -84 -109 -128 -35 -43 -94 -113 -130 -154
-85 -96 -142 -172 -135 -179 3 -3 29 20 58 51 29 31 94 100 146 154 52 55 107
117 123 139 16 22 54 65 83 96 30 31 52 59 48 63 -16 16 -44 2 -84 -42z"/>
<path d="M6385 4900 c-3 -5 -1 -10 4 -10 6 0 11 5 11 10 0 6 -2 10 -4 10 -3 0
-8 -4 -11 -10z"/>
<path d="M5285 4470 c-3 -5 -1 -10 4 -10 6 0 11 5 11 10 0 6 -2 10 -4 10 -3 0
-8 -4 -11 -10z"/>
<path d="M5318 4473 c7 -3 16 -2 19 1 4 3 -2 6 -13 5 -11 0 -14 -3 -6 -6z"/>
<path d="M6835 4789 c-68 -56 -76 -68 -41 -62 14 3 24 9 21 13 -3 4 17 29 43
54 61 59 52 58 -23 -5z"/>
<path d="M6740 4709 c0 -5 5 -7 10 -4 6 3 10 8 10 11 0 2 -4 4 -10 4 -5 0 -10
-5 -10 -11z"/>
<path d="M5647 4204 c-75 -20 -76 -21 -17 -22 67 -2 90 5 90 24 0 16 -8 16
-73 -2z"/>
<path d="M3228 5179 c-39 -22 -15 -49 43 -49 37 0 50 27 24 46 -22 16 -43 17
-67 3z"/>
<path d="M1521 4824 c0 -11 3 -14 6 -6 3 7 2 16 -1 19 -3 4 -6 -2 -5 -13z"/>
<path d="M2955 4600 l-100 -6 115 -1 c63 -1 133 2 155 6 39 9 39 9 -15 8 -30
-1 -100 -4 -155 -7z"/>
<path d="M3093 3799 c-49 -24 -99 -77 -120 -127 -17 -41 -19 -132 -4 -188 14
-53 70 -117 127 -144 135 -66 288 43 301 213 10 122 -40 208 -143 247 -69 25
-108 25 -161 -1z"/>
<path d="M3975 3797 c-37 -17 -93 -79 -111 -123 -17 -40 -18 -144 -3 -198 6
-23 29 -57 58 -86 38 -38 59 -50 102 -60 50 -11 59 -10 107 10 92 40 151 130
152 233 0 95 -34 155 -117 204 -52 30 -144 40 -188 20z"/>
<path d="M6260 3699 c0 -6 -20 -62 -45 -126 -25 -63 -43 -119 -39 -124 3 -5
48 -9 101 -9 72 0 94 3 91 13 -58 166 -94 257 -100 257 -4 0 -8 -5 -8 -11z"/>
<path d="M5366 3810 c-1 -3 -1 -42 2 -87 l4 -83 67 0 c133 1 201 32 201 91 0
43 -29 68 -90 79 -55 10 -179 11 -184 0z"/>
<path d="M5403 3492 l-33 -3 0 -95 0 -94 103 6 c153 9 190 25 203 91 5 25 0
36 -23 61 -27 29 -32 31 -123 34 -52 2 -110 2 -127 0z"/>
<path d="M1735 3754 c-59 -30 -104 -84 -116 -141 -16 -71 -1 -120 54 -177 85
-88 224 -87 300 3 31 37 41 82 35 157 -6 66 -46 130 -98 156 -44 22 -134 23
-175 2z m141 -90 c39 -41 45 -87 17 -134 -26 -45 -55 -56 -100 -39 -30 11 -43
25 -62 63 -29 58 -22 89 28 123 48 33 78 29 117 -13z"/>
<path d="M8181 3757 c-66 -34 -104 -94 -109 -170 -4 -57 -1 -66 30 -112 64
-96 155 -118 264 -64 87 43 128 163 85 247 -26 51 -68 88 -120 107 -60 21
-100 19 -150 -8z m115 -66 c34 -21 64 -75 64 -115 0 -54 -75 -93 -135 -70 -18
7 -55 74 -55 101 0 25 34 74 62 89 30 17 28 17 64 -5z"/>
<path d="M3744 2821 c-2 -2 -4 -62 -4 -133 l0 -128 68 1 c159 1 211 24 233
100 10 31 9 43 -7 75 -33 65 -61 78 -181 84 -57 3 -107 3 -109 1z"/>
<path d="M4631 2627 c-19 -45 -42 -103 -52 -129 l-19 -48 100 0 c55 0 100 2
100 5 0 4 -90 249 -93 252 -1 0 -17 -35 -36 -80z"/>
<path d="M7555 1791 c-6 -11 9 -23 19 -14 9 9 7 23 -3 23 -6 0 -12 -4 -16 -9z"/>
<path d="M7457 1759 c8 -8 19 -8 40 -1 28 10 28 10 -11 11 -29 1 -37 -2 -29
-10z"/>
<path d="M2513 1797 c-41 -22 -42 -22 -19 -33 13 -6 41 -11 62 -10 36 1 39 3
36 28 -3 23 0 27 14 21 12 -4 15 -3 10 5 -11 18 -57 13 -103 -11z"/>
<path d="M4786 1509 c-48 -57 -34 -152 29 -193 57 -38 125 21 125 109 0 102
-95 154 -154 84z"/>
<path d="M5661 1457 l-43 -52 43 -7 c23 -4 44 -6 46 -4 2 2 3 29 1 59 l-3 56
-44 -52z"/>
</g>
</svg>
